<?xml version="1.0" standalone="no"?><svg xmlns="http://www.w3.org/2000/svg" viewBox="0 0 1440 320"><path fill="000000" fill-opacity="1" d="M0,128L34.3,149.3C68.6,171,137,213,206,240C274.3,267,343,277,411,282.7C480,288,549,288,617,256C685.7,224,754,160,823,138.7C891.4,117,960,139,1029,176C1097.1,213,1166,267,1234,240C1302.9,213,1371,107,1406,53.3L1440,0L1440,320L1405.7,320C1371.4,320,1303,320,1234,320C1165.7,320,1097,320,1029,320C960,320,891,320,823,320C754.3,320,686,320,617,320C548.6,320,480,320,411,320C342.9,320,274,320,206,320C137.1,320,69,320,34,320L0,320Z"></path></svg>